<?xml version="1.0" encoding="utf-8"?>
<!-- Generator: Adobe Illustrator 26.0.0, SVG Export Plug-In . SVG Version: 6.00 Build 0)  -->
<svg version="1.1" id="Layer_1" xmlns="http://www.w3.org/2000/svg" xmlns:xlink="http://www.w3.org/1999/xlink" x="0px" y="0px"
	 viewBox="0 0 1340.79 453.54" style="enable-background:new 0 0 1340.79 453.54;" xml:space="preserve">
<style type="text/css">
	.st0{fill:#6B6B6B;}
	.st1{fill:#2EBBDD;}
	.st2{fill:#21ADCF;}
	.st3{fill:#4391C3;}
	.st4{fill:#3F89B7;}
	.st5{fill:#76C2A0;}
	.st6{fill:#6CB292;}
	.st7{fill:#57BDB6;}
	.st8{fill:#50AFA9;}
	.st9{fill:#5D967B;}
	.st10{fill:#D5D2D2;}
	.st11{fill:#2392AA;}
	.st12{fill:#259CB6;}
	.st13{fill:#44948C;}
	.st14{fill:#499E96;}
	.st15{fill:#397496;}
	.st16{fill:#3C7AA0;}
	.st17{fill:#2B2638;}
</style>
<g>
	<g>
		<path class="st0" d="M575.18,289.56c11.92,0,17.28,4,17.28,12.72c0.13,4.56-3.05,8.54-7.52,9.44c6.01,0.58,10.59,5.64,10.56,11.68
			c0,8.72-6.32,12.56-19.2,12.56h-16v-46.39H575.18z M565.74,309.56h12c6.4,0,9.76-2.56,9.76-7.04c0-4.48-3.76-8-12.32-8h-9.44
			V309.56z M565.74,330.91h10.64c9.2,0,13.76-2.32,13.76-8c0-5.68-4.32-8.72-12.4-8.72h-12L565.74,330.91z"/>
		<path class="st0" d="M643.25,315.15c0,13.68-6.96,21.44-19.28,21.44c-12.32,0-19.36-8-19.36-21.52v-25.52h5.2v25.52
			c0,10.72,5.12,16.56,14.16,16.56c9.04,0,14.08-5.84,14.08-16.56v-25.52h5.2L643.25,315.15z"/>
		<path class="st0" d="M655.97,335.95v-46.39h5.2v46.39H655.97z"/>
		<path class="st0" d="M675.65,335.95v-46.39h5.12v41.43h23.2v4.96H675.65z"/>
		<path class="st0" d="M727.96,289.56c15.2,0,24.64,8,24.64,22.64c1.25,12.04-7.5,22.81-19.54,24.06c-1.7,0.18-3.41,0.15-5.1-0.07
			H713.8v-46.63H727.96z M727.96,331.07c9.56,1.14,18.24-5.68,19.38-15.24c0.14-1.21,0.16-2.42,0.05-3.63
			c0.49-9.4-6.72-17.41-16.12-17.91c-1.11-0.06-2.22-0.01-3.32,0.15h-8.8v36.64H727.96z"/>
		<path class="st0" d="M763.47,335.95v-46.39h5.12v46.39H763.47z"/>
		<path class="st0" d="M816.43,335.95l-28.48-37.52v37.52h-5.2v-46.39h4.72l28.48,37.6v-37.6h5.12v46.39H816.43z"/>
		<path class="st0" d="M874.34,330.11c-6.21,4.39-13.67,6.66-21.28,6.48c-12.96,0-20.8-8.56-20.8-24c0-15.44,8-24,22-24
			c6.14-0.01,12.22,1.27,17.84,3.76l-1.6,4.24c-5.08-2.07-10.51-3.13-16-3.12c-11.04,0-17.12,6.96-17.12,19.12
			c0,12.16,5.84,18.96,16,18.96c5.66,0.26,11.27-1.28,16-4.4v-9.6h-17.2v-4.8h22.16V330.11z"/>
		<path class="st0" d="M903.94,335.95v-46.39h5.2v46.39H903.94z"/>
		<path class="st0" d="M938.89,294.44v41.52h-5.2v-41.52h-16.8v-4.88h38.8v4.88H938.89z"/>
		<path class="st0" d="M997.13,294.44v41.52h-5.2v-41.52h-16.8v-4.88h38.8v4.88H997.13z"/>
		<path class="st0" d="M1062,312.84c0,15.2-8,24-21.6,24c-13.6,0-21.68-8.56-21.68-24c0-15.44,8-24,21.68-24S1062,297.4,1062,312.84
			z M1056.72,312.84c0-12.48-5.84-19.2-16-19.2c-10.16,0-16,6.72-16,19.2c0,12.48,5.84,18.88,16,18.88
			C1050.88,331.71,1056.72,325.55,1056.72,312.84z"/>
		<path class="st0" d="M1111.91,330.11c-6.21,4.39-13.67,6.66-21.28,6.48c-12.88,0-20.8-8.56-20.8-24c0-15.44,8-24,22-24
			c6.14-0.02,12.22,1.26,17.84,3.76l-1.6,4.24c-5.08-2.07-10.51-3.13-16-3.12c-11.04,0-17.12,6.96-17.12,19.12
			c0,12.16,5.84,18.96,16,18.96c5.66,0.24,11.25-1.3,16-4.4v-9.6h-17.28v-4.8h22.24V330.11z"/>
		<path class="st0" d="M1123.75,335.95v-46.39h30.32v4.88h-25.12v16h22v4.88h-22v16h25.84v4.88L1123.75,335.95z"/>
		<path class="st0" d="M1182.62,294.44v41.52h-5.2v-41.52h-16.72v-4.88h38.72v4.88H1182.62z"/>
		<path class="st0" d="M1240.38,335.95V314.6h-27.76v21.36h-4.72v-46.39h5.12v20h27.76v-20h5.2v46.39H1240.38z"/>
		<path class="st0" d="M1259.73,335.95v-46.39h30.4v4.88h-25.2v16h22.08v4.88h-22.08v16h25.84v4.88L1259.73,335.95z"/>
		<path class="st0" d="M1338.85,335.95h-5.68l-13.28-16h-12v16h-5.12v-46.39h16c12.16,0,18.56,5.36,18.56,15.36
			c0.05,7.27-5.22,13.49-12.4,14.64l13.52,16L1338.85,335.95z M1319.89,315.24c7.6,0,12.64-3.84,12.64-10.32s-4.56-10.4-13.2-10.48
			h-11.44v20.8H1319.89z"/>
	</g>
	<g>
		<path class="st1" d="M156.52,438.49c43.97,13.8,91.11,13.8,135.08,0l-66.7-67.54L156.52,438.49z"/>
		<path class="st2" d="M72.67,389.35c20,18.47,43.26,33.08,68.59,43.08l83.64-83.64l-55.41-55.41L72.67,389.35z"/>
		<path class="st1" d="M168.65,293.17l56.25,55.41l83.64,83.64c25.03-10.09,47.99-24.69,67.75-43.08L224.9,237.75L168.65,293.17z"/>
		<path class="st3" d="M12.45,159.13c-14.01,43.94-14.01,91.14,0,135.08l67.54-67.54L12.45,159.13z"/>
		<path class="st4" d="M61.59,75.07c-18.43,19.76-33.1,42.72-43.28,67.75l83.64,83.64l55.41-55.41L61.59,75.07z"/>
		<path class="st3" d="M157.57,171.26l-55.41,55.41l-83.64,83.64c10.19,25.03,24.85,47.99,43.28,67.75l151.39-151.6L157.57,171.26z"
			/>
		<path class="st5" d="M291.6,14.85c-43.97-13.8-91.11-13.8-135.08,0l68.38,67.54L291.6,14.85z"/>
		<path class="st6" d="M375.66,63.99c-19.57-18.32-42.31-32.92-67.12-43.07l-83.64,83.64l55.62,55.41L375.66,63.99z"/>
		<path class="st5" d="M279.68,160.18l-54.78-55.41l-83.64-83.64C116.23,31.21,93.26,45.81,73.51,64.2L224.9,215.59L279.68,160.18z"
			/>
		<path class="st7" d="M435.88,294.21c14.01-43.94,14.01-91.14,0-135.08l-67.54,67.54L435.88,294.21z"/>
		<path class="st8" d="M386.74,378.27c18.36-19.82,33.02-42.76,43.28-67.75l-83.64-83.64l-55.62,54.37L386.74,378.27z"/>
		<path class="st7" d="M290.77,281.25l55.41-55.41l83.64-83.64c-10.26-24.99-24.92-47.93-43.28-67.75l-151.6,151.6L290.77,281.25z"
			/>
	</g>
	<polygon class="st9" points="235.35,93.68 227.62,101.21 224.06,104.77 279.68,160.18 290.77,149.09 	"/>
	<path class="st10" d="M168.65,293.17L168.65,293.17l20.91,20.91L168.65,293.17 M158.82,302.99l-1.25,1.25L158.82,302.99z
		 M224.9,348.58L224.9,348.58"/>
	<polyline class="st11" points="168.65,293.17 159.03,302.99 157.57,304.25 212.98,359.66 224.06,348.58 196.46,320.98 
		189.56,314.08 168.65,293.17 	"/>
	<polygon class="st12" points="168.65,293.17 168.65,293.17 189.56,314.08 196.46,320.98 	"/>
	<path class="st10" d="M327.57,245.07l-36.8,36.17L327.57,245.07z M299.34,290.87l2.51,2.3L299.34,290.87z"/>
	<polygon class="st13" points="346.18,226.67 335.1,237.75 327.57,245.07 290.77,282.08 299.34,290.87 301.85,293.17 357.26,237.75 
			"/>
	<polygon class="st14" points="335.1,237.75 290.77,282.08 327.57,245.07 	"/>
	<path class="st10" d="M157.57,171.26l-11.08-11.08L157.57,171.26z"/>
	<polyline class="st15" points="146.49,160.18 91.07,215.59 102.16,226.67 115.96,212.87 157.57,171.26 146.49,160.18 	"/>
	<polygon class="st16" points="102.16,226.67 102.16,226.67 115.96,212.87 	"/>
	<g>
		<path class="st17" d="M560.3,230.3V124.99h15.88v90.12h51.61v15.19H560.3z"/>
		<path class="st17" d="M647.46,230.3V124.99h15.88V230.3H647.46z"/>
		<path class="st17" d="M771.05,230.3l-59.73-78.2v78.2h-15.88V124.99h14.5l59.73,78.55v-78.55h15.88V230.3H771.05z"/>
		<path class="st17" d="M833.53,205.26v25.03h-15.88V124.99h15.88v57.83l53.69-57.83h18.82v1.04l-40.22,43.67l43.16,59.39v1.21
			h-17.61l-35.91-49.03L833.53,205.26z"/>
		<path class="st17" d="M928.28,230.3V124.99h15.88V230.3H928.28z"/>
		<path class="st17" d="M1013.89,139.84v90.46h-15.88v-90.46h-36.77v-14.85h89.42v14.85H1013.89z"/>
	</g>
</g>
</svg>
